<?xml version="1.0" encoding="UTF-8"?>
<svg xmlns="http://www.w3.org/2000/svg" width="190" height="620" viewBox="0 0 190 620">
  <defs>
    <linearGradient id="greenR" x1="1" y1="0" x2="0" y2="1">
      <stop offset="0" stop-color="#42b62e"/>
      <stop offset="0.35" stop-color="#20891f"/>
      <stop offset="1" stop-color="#075b22"/>
    </linearGradient>
    <linearGradient id="whiteR" x1="1" y1="0" x2="0" y2="1">
      <stop offset="0" stop-color="#fffef7"/>
      <stop offset="0.55" stop-color="#e8eee9"/>
      <stop offset="1" stop-color="#aebbb5"/>
    </linearGradient>
    <filter id="shadowR" x="-70%" y="-15%" width="220%" height="145%">
      <feGaussianBlur stdDeviation="5"/>
    </filter>
    <g id="tileR">
      <path d="M6 13 L49 8 L55 49 L13 55 Z" fill="#001b16" opacity=".50" transform="translate(1 7)"/>
      <path d="M0 9 L37 5 L44 46 L6 51 Z" fill="url(#greenR)" stroke="#064b1d" stroke-width="1.4"/>
      <path d="M36 5 L49 0 L54 40 L43 46 Z" fill="url(#whiteR)" stroke="#87968f" stroke-width="1.2"/>
      <path d="M0 9 L36 5 L37 11 L2 15 Z" fill="#79ea42" opacity=".94"/>
      <path d="M2 15 L37 11" fill="none" stroke="#b4ff73" stroke-width="1.1" opacity=".8"/>
      <path d="M7 49 L42 44" fill="none" stroke="#043d19" stroke-width="2" opacity=".65"/>
    </g>
  </defs>
  <path d="M64 16 L148 587 L179 590 L96 22 Z" fill="#001713" opacity=".34" filter="url(#shadowR)"/>
  <g transform="translate(31 12)">
    <use href="#tileR" transform="translate(0 0)"/>
    <use href="#tileR" transform="translate(7 43)"/>
    <use href="#tileR" transform="translate(14 86)"/>
    <use href="#tileR" transform="translate(21 129)"/>
    <use href="#tileR" transform="translate(28 172)"/>
    <use href="#tileR" transform="translate(35 215)"/>
    <use href="#tileR" transform="translate(42 258)"/>
    <use href="#tileR" transform="translate(49 301)"/>
    <use href="#tileR" transform="translate(56 344)"/>
    <use href="#tileR" transform="translate(63 387)"/>
    <use href="#tileR" transform="translate(70 430)"/>
    <use href="#tileR" transform="translate(77 473)"/>
    <use href="#tileR" transform="translate(84 516)"/>
  </g>
</svg>
